<?xml version="1.0" encoding="utf-8"?>
<!-- Generator: Adobe Illustrator 21.0.0, SVG Export Plug-In . SVG Version: 6.00 Build 0)  -->
<svg version="1.1" id="Слой_1" xmlns="http://www.w3.org/2000/svg" xmlns:xlink="http://www.w3.org/1999/xlink" x="0px" y="0px"
	 viewBox="0 0 12715 6719" style="enable-background:new 0 0 12715 6719;" xml:space="preserve">
<g transform="translate(0.000000,6719.000000) scale(0.100000,-0.100000)">
	<path d="M41410,67173c-717-70-1222-156-1849-313c-2791-699-5670-2390-7680-4510c-1215-1283-2325-2985-3052-4682
		c-624-1457-968-2855-1060-4313c-26-404-14-1043,26-1495c26-277,103-821,119-838c10-10,632-4,826,8c1573,95,3112,523,4660,1296
		c1837,918,3502,2251,4746,3799c720,897,1398,1957,1927,3015c869,1735,1380,3479,1541,5250c35,380,41,543,41,1085
		c-1,654-22,995-95,1544c-11,80-20,149-20,154C41540,67180,41480,67180,41410,67173z"/>
	<path d="M42550,51453c-1616-24-3183-270-4805-755c-667-199-1208-388-2510-878c-1521-572-2052-750-2790-934
		c-872-217-1593-309-2425-309c-937,1-1820,121-2885,393c-706,180-1387,397-2625,837c-1679,596-2229,779-2985,994
		c-2012,571-3837,761-5635,588c-2182-210-4405-966-6475-2202c-1078-644-2087-1400-3080-2306c-233-213-953-933-1171-1171
		c-997-1092-1907-2320-2551-3445C1139,39691,263,36437,56,32760c-35-616-41-858-41-1710c0-813,6-1083,35-1645
		c338-6476,2525-13222,6220-19185c540-871,1300-2010,1928-2890c2330-3261,4462-5312,6662-6411c1081-540,2139-833,3248-900
		c255-15,961-6,1217,16c1096,94,2018,344,3320,900c99,42,452,197,785,345c839,372,1168,510,1620,678c946,353,1849,586,2805,726
		c1501,219,3203,217,4640-4c723-111,1383-272,2080-505c646-216,1124-412,2180-895c483-221,802-363,1024-457
		c1107-466,1958-688,2986-780c291-26,1134-26,1385,0c983,101,1861,358,2797,821c671,332,1354,766,2013,1279
		c1722,1341,3443,3286,5374,6072c548,790,1888,2821,2366,3585c646,1034,1039,1794,1864,3611c64,141,116,260,116,265
		c-1,5-144,80-318,166c-3182,1574-5781,3930-7484,6783c-481,806-915,1706-1233,2555c-578,1542-894,3094-966,4730
		c-13,300-7,1179,10,1435c33,481,69,845,126,1245c333,2333,1232,4573,2631,6550c1506,2129,3537,3923,6072,5360
		c167,95,249,147,244,154c-86,116-441,535-681,806c-497,558-1163,1219-1726,1714c-1953,1714-4177,2974-6475,3670
		c-1050,317-2121,514-3192,586c-189,13-756,30-888,28C42748,51456,42635,51455,42550,51453z M32438,44419c696-75,1243-609,1332-1299
		c8-61,10-3703,8-12905l-3-12820l-23-97c-69-299-199-536-412-748c-214-215-455-346-753-412l-102-23h-2095c-1972,0-2100,1-2183,18
		c-639,130-1120,640-1202,1276c-14,103-15,1572-12,12916l3,12800l21,96c115,518,451,917,933,1107c96,38,262,79,365,91
		C28433,44432,32317,44433,32438,44419z"/>
	<path d="M62619,43610c-3734-129-6782-1393-9283-3850c-1297-1275-2273-2714-2912-4295c-476-1179-773-2462-879-3795
		c-31-390-36-534-42-1035c-6-519,3-869,33-1295c159-2311,806-4376,1947-6215c697-1122,1603-2181,2587-3025
		c1439-1234,3113-2097,5020-2589c1333-344,2767-506,4320-488c892,11,1567,65,2390,192c2629,406,5031,1520,6930,3214
		c226,202,647,617,859,846c300,326,680,780,665,795c-7,6-1817,1380-1960,1487l-31,23l-179-203c-314-355-913-944-1279-1258
		c-985-844-2094-1512-3240-1951c-1153-443-2330-681-3660-739c-300-13-1094-7-1360,10c-1726,114-3138,476-4495,1152
		c-1052,525-2008,1227-2870,2105c-1743,1778-2722,3905-2949,6409c-39,430-46,600-46,1155c0,553,6,701,46,1135
		c166,1826,744,3484,1724,4950c197,295,325,472,519,714c787,983,1723,1795,2846,2467c1502,900,3086,1418,4805,1573
		c411,37,611,46,1105,45c469,0,669-8,1060-39c2351-191,4490-1049,6225-2496c569-475,1129-1053,1629-1681c64-82,119-148,122-148
		s1968,1504,1993,1526c5,5-203,281-348,464c-773,969-1693,1820-2726,2522c-530,360-1178,731-1735,993c-1677,790-3432,1211-5465,1315
		C63708,43614,62904,43620,62619,43610z"/>
	<path d="M78600,30635V17650h1200h1200v12985v12985h-1200h-1200V30635z"/>
	<path d="M107635,43608c-3-7-4-5849-3-12983l3-12970l1197-3l1198-2l2,1722l3,1723l109-145c731-969,1515-1729,2396-2319
		c1143-767,2450-1233,3870-1380c356-37,461-43,926-48c487-6,734,3,1109,37c2199,204,4113,1109,5744,2715
		c872,859,1505,1724,1996,2728c568,1161,872,2374,945,3762c13,246,13,846,0,1095c-39,749-132,1376-305,2055
		c-381,1497-1097,2821-2189,4045c-153,173-652,671-821,821c-1370,1219-2887,1959-4612,2248c-557,94-1031,131-1661,131
		c-391,0-613-8-922-36c-1833-163-3480-829-4919-1988c-276-221-511-436-827-751c-317-317-455-465-708-765l-131-154l-3,5237l-2,5237
		h-1195C107888,43620,107638,43617,107635,43608z M117960,34596c842-78,1601-283,2377-641c1225-566,2260-1450,3019-2580
		c1121-1669,1556-3563,1264-5500c-201-1329-832-2707-1727-3775c-1157-1379-2790-2273-4585-2510c-782-103-1649-83-2433,55
		c-1337,236-2530,830-3540,1762c-167,155-480,474-617,630c-1029,1173-1630,2582-1782,4178c-42,437-54,1079-28,1450
		c78,1097,311,2000,742,2883c525,1073,1250,1930,2229,2631c601,431,1313,797,2026,1041c632,216,1275,344,1960,390
		C117068,34623,117756,34615,117960,34596z"/>
	<path d="M85700,31618c0-2951,4-4905,10-5118c67-2318,366-3976,933-5185c416-888,987-1656,1683-2266c692-606,1494-1070,2368-1368
		c716-245,1437-385,2351-457c272-21,1155-30,1466-15c1886,94,3343,577,4579,1517c957,727,1679,1657,2174,2803
		c321,741,555,1712,690,2861c57,484,86,855,128,1635c8,148,12,1699,15,5288l4,5077l-1233-2l-1233-3l-6-5040c-4-3494-9-5120-17-5300
		c-25-573-34-742-53-1030c-55-830-138-1429-260-1862c-87-308-289-765-479-1083c-329-548-785-1049-1325-1454
		c-620-466-1352-789-2165-955c-747-152-1641-178-2430-70c-1271,174-2371,701-3210,1539c-354,354-605,688-842,1125
		c-187,343-358,787-448,1158c-135,557-230,1426-270,2467c-5,151-13,309-16,350s-8,2343-12,5115l-7,5040l-1197,3l-1198,2V31618z"/>
</g>
</svg>
