<?xml version="1.0" encoding="utf-8"?>
<!-- Generator: Adobe Illustrator 22.1.0, SVG Export Plug-In . SVG Version: 6.00 Build 0)  -->
<svg version="1.1" id="Слой_1" xmlns="http://www.w3.org/2000/svg" xmlns:xlink="http://www.w3.org/1999/xlink" x="0px" y="0px"
	 viewBox="0 0 76 90" style="enable-background:new 0 0 76 90;" xml:space="preserve">
<path d="M68.3,22.7c-0.1-2.2-1.7-3.9-3.7-3.9H57v-0.5C57,8.2,48.7,0,38.5,0h-1C27.3,0,19,8.2,19,18.3v0.5h-7.6c-2,0-3.6,1.7-3.7,3.9
	L0,79.6v0.3C0,85.4,4.6,90,10.3,90h55.5C71.4,90,76,85.4,76,79.8v-0.1L68.3,22.7z M23.1,18.3c0-7.9,6.5-14.2,14.4-14.2h1
	c7.9,0,14.4,6.4,14.4,14.2v0.5H23.1V18.3z M65.7,85.9H10.3c-3.4,0-6.1-2.7-6.2-6l7.7-56.8v-0.3H19v12.7c0,1.1,0.9,2,2.1,2
	c1.1,0,2.1-0.9,2.1-2V22.9H53v12.7c0,1.1,0.9,2,2.1,2s2.1-0.9,2.1-2V22.9h7.2L71.9,80C71.8,83.3,69.1,85.9,65.7,85.9z"/>
</svg>
