<?xml version="1.0" standalone="no"?>
<!DOCTYPE svg PUBLIC "-//W3C//DTD SVG 20010904//EN"
 "http://www.w3.org/TR/2001/REC-SVG-20010904/DTD/svg10.dtd">
<svg version="1.0" xmlns="http://www.w3.org/2000/svg"
 width="12715.000000pt" height="6719.000000pt" viewBox="0 0 12715.000000 6719.000000"
 preserveAspectRatio="xMidYMid meet">
<metadata>
Created by potrace 1.15, written by Peter Selinger 2001-2017
</metadata>
<g transform="translate(0.000000,6719.000000) scale(0.100000,-0.100000)"
fill="#000000" stroke="none">
<path d="M41410 67173 c-717 -70 -1222 -156 -1849 -313 -2791 -699 -5670
-2390 -7680 -4510 -1215 -1283 -2325 -2985 -3052 -4682 -624 -1457 -968 -2855
-1060 -4313 -26 -404 -14 -1043 26 -1495 26 -277 103 -821 119 -838 10 -10
632 -4 826 8 1573 95 3112 523 4660 1296 1837 918 3502 2251 4746 3799 720
897 1398 1957 1927 3015 869 1735 1380 3479 1541 5250 35 380 41 543 41 1085
-1 654 -22 995 -95 1544 -11 80 -20 149 -20 154 0 7 -60 7 -130 0z"/>
<path d="M42550 51453 c-1616 -24 -3183 -270 -4805 -755 -667 -199 -1208 -388
-2510 -878 -1521 -572 -2052 -750 -2790 -934 -872 -217 -1593 -309 -2425 -309
-937 1 -1820 121 -2885 393 -706 180 -1387 397 -2625 837 -1679 596 -2229 779
-2985 994 -2012 571 -3837 761 -5635 588 -2182 -210 -4405 -966 -6475 -2202
-1078 -644 -2087 -1400 -3080 -2306 -233 -213 -953 -933 -1171 -1171 -997
-1092 -1907 -2320 -2551 -3445 -1474 -2574 -2350 -5828 -2557 -9505 -35 -616
-41 -858 -41 -1710 0 -813 6 -1083 35 -1645 338 -6476 2525 -13222 6220
-19185 540 -871 1300 -2010 1928 -2890 2330 -3261 4462 -5312 6662 -6411 1081
-540 2139 -833 3248 -900 255 -15 961 -6 1217 16 1096 94 2018 344 3320 900
99 42 452 197 785 345 839 372 1168 510 1620 678 946 353 1849 586 2805 726
1501 219 3203 217 4640 -4 723 -111 1383 -272 2080 -505 646 -216 1124 -412
2180 -895 483 -221 802 -363 1024 -457 1107 -466 1958 -688 2986 -780 291 -26
1134 -26 1385 0 983 101 1861 358 2797 821 671 332 1354 766 2013 1279 1722
1341 3443 3286 5374 6072 548 790 1888 2821 2366 3585 646 1034 1039 1794
1864 3611 64 141 116 260 116 265 -1 5 -144 80 -318 166 -3182 1574 -5781
3930 -7484 6783 -481 806 -915 1706 -1233 2555 -578 1542 -894 3094 -966 4730
-13 300 -7 1179 10 1435 33 481 69 845 126 1245 333 2333 1232 4573 2631 6550
1506 2129 3537 3923 6072 5360 167 95 249 147 244 154 -86 116 -441 535 -681
806 -497 558 -1163 1219 -1726 1714 -1953 1714 -4177 2974 -6475 3670 -1050
317 -2121 514 -3192 586 -189 13 -756 30 -888 28 -52 -2 -165 -3 -250 -5z
m-10112 -7034 c696 -75 1243 -609 1332 -1299 8 -61 10 -3703 8 -12905 l-3
-12820 -23 -97 c-69 -299 -199 -536 -412 -748 -214 -215 -455 -346 -753 -412
l-102 -23 -2095 0 c-1972 0 -2100 1 -2183 18 -639 130 -1120 640 -1202 1276
-14 103 -15 1572 -12 12916 l3 12800 21 96 c115 518 451 917 933 1107 96 38
262 79 365 91 118 13 4002 14 4123 0z"/>
<path d="M62619 43610 c-3734 -129 -6782 -1393 -9283 -3850 -1297 -1275 -2273
-2714 -2912 -4295 -476 -1179 -773 -2462 -879 -3795 -31 -390 -36 -534 -42
-1035 -6 -519 3 -869 33 -1295 159 -2311 806 -4376 1947 -6215 697 -1122 1603
-2181 2587 -3025 1439 -1234 3113 -2097 5020 -2589 1333 -344 2767 -506 4320
-488 892 11 1567 65 2390 192 2629 406 5031 1520 6930 3214 226 202 647 617
859 846 300 326 680 780 665 795 -7 6 -1817 1380 -1960 1487 l-31 23 -179
-203 c-314 -355 -913 -944 -1279 -1258 -985 -844 -2094 -1512 -3240 -1951
-1153 -443 -2330 -681 -3660 -739 -300 -13 -1094 -7 -1360 10 -1726 114 -3138
476 -4495 1152 -1052 525 -2008 1227 -2870 2105 -1743 1778 -2722 3905 -2949
6409 -39 430 -46 600 -46 1155 0 553 6 701 46 1135 166 1826 744 3484 1724
4950 197 295 325 472 519 714 787 983 1723 1795 2846 2467 1502 900 3086 1418
4805 1573 411 37 611 46 1105 45 469 0 669 -8 1060 -39 2351 -191 4490 -1049
6225 -2496 569 -475 1129 -1053 1629 -1681 64 -82 119 -148 122 -148 3 0 1968
1504 1993 1526 5 5 -203 281 -348 464 -773 969 -1693 1820 -2726 2522 -530
360 -1178 731 -1735 993 -1677 790 -3432 1211 -5465 1315 -277 14 -1081 20
-1366 10z"/>
<path d="M78600 30635 l0 -12985 1200 0 1200 0 0 12985 0 12985 -1200 0 -1200
0 0 -12985z"/>
<path d="M107635 43608 c-3 -7 -4 -5849 -3 -12983 l3 -12970 1197 -3 1198 -2
2 1722 3 1723 109 -145 c731 -969 1515 -1729 2396 -2319 1143 -767 2450 -1233
3870 -1380 356 -37 461 -43 926 -48 487 -6 734 3 1109 37 2199 204 4113 1109
5744 2715 872 859 1505 1724 1996 2728 568 1161 872 2374 945 3762 13 246 13
846 0 1095 -39 749 -132 1376 -305 2055 -381 1497 -1097 2821 -2189 4045 -153
173 -652 671 -821 821 -1370 1219 -2887 1959 -4612 2248 -557 94 -1031 131
-1661 131 -391 0 -613 -8 -922 -36 -1833 -163 -3480 -829 -4919 -1988 -276
-221 -511 -436 -827 -751 -317 -317 -455 -465 -708 -765 l-131 -154 -3 5237
-2 5237 -1195 0 c-947 0 -1197 -3 -1200 -12z m10325 -9012 c842 -78 1601 -283
2377 -641 1225 -566 2260 -1450 3019 -2580 1121 -1669 1556 -3563 1264 -5500
-201 -1329 -832 -2707 -1727 -3775 -1157 -1379 -2790 -2273 -4585 -2510 -782
-103 -1649 -83 -2433 55 -1337 236 -2530 830 -3540 1762 -167 155 -480 474
-617 630 -1029 1173 -1630 2582 -1782 4178 -42 437 -54 1079 -28 1450 78 1097
311 2000 742 2883 525 1073 1250 1930 2229 2631 601 431 1313 797 2026 1041
632 216 1275 344 1960 390 203 13 891 5 1095 -14z"/>
<path d="M85700 31618 c0 -2951 4 -4905 10 -5118 67 -2318 366 -3976 933
-5185 416 -888 987 -1656 1683 -2266 692 -606 1494 -1070 2368 -1368 716 -245
1437 -385 2351 -457 272 -21 1155 -30 1466 -15 1886 94 3343 577 4579 1517
957 727 1679 1657 2174 2803 321 741 555 1712 690 2861 57 484 86 855 128
1635 8 148 12 1699 15 5288 l4 5077 -1233 -2 -1233 -3 -6 -5040 c-4 -3494 -9
-5120 -17 -5300 -25 -573 -34 -742 -53 -1030 -55 -830 -138 -1429 -260 -1862
-87 -308 -289 -765 -479 -1083 -329 -548 -785 -1049 -1325 -1454 -620 -466
-1352 -789 -2165 -955 -747 -152 -1641 -178 -2430 -70 -1271 174 -2371 701
-3210 1539 -354 354 -605 688 -842 1125 -187 343 -358 787 -448 1158 -135 557
-230 1426 -270 2467 -5 151 -13 309 -16 350 -3 41 -8 2343 -12 5115 l-7 5040
-1197 3 -1198 2 0 -4772z"/>
</g>
</svg>
