<?xml version="1.0" encoding="utf-8"?>
<!-- Generator: Adobe Illustrator 22.1.0, SVG Export Plug-In . SVG Version: 6.00 Build 0)  -->
<svg version="1.1" id="Слой_1" xmlns="http://www.w3.org/2000/svg" xmlns:xlink="http://www.w3.org/1999/xlink" x="0px" y="0px"
	 viewBox="0 0 90 80" style="enable-background:new 0 0 90 80;" xml:space="preserve">
<path d="M65,0c-7.9,0-15.3,3.8-20,10.1C40.3,3.8,32.9,0,25,0C11.2,0,0,11.4,0,25.3c0,6.9,2.6,13.2,7.5,18l0,0l36.1,36
	C44,79.8,44.5,80,45,80s1-0.2,1.4-0.6l36-35.9l0.1-0.1c4.9-4.8,7.5-11.2,7.5-18.1C90,11.4,78.8,0,65,0z M79.7,40.5L79.7,40.5
	L79.7,40.5c-0.1,0.1-0.1,0.1-0.2,0.2L45,75.1L10.5,40.7c0,0,0,0-0.1-0.1l0,0C6.3,36.6,4,31.1,4,25.3C4,13.6,13.4,4,25,4
	c7.5,0,14.5,4.1,18.3,10.8c0.4,0.6,1,1,1.7,1s1.4-0.4,1.7-1C50.4,8.2,57.4,4,65,4c11.6,0,21,9.5,21,21.3
	C86,31.1,83.8,36.5,79.7,40.5z"/>
</svg>
