<?xml version="1.0" encoding="utf-8"?>
<!-- Generator: Adobe Illustrator 22.1.0, SVG Export Plug-In . SVG Version: 6.00 Build 0)  -->
<svg version="1.1" id="Слой_1" xmlns="http://www.w3.org/2000/svg" xmlns:xlink="http://www.w3.org/1999/xlink" x="0px" y="0px"
	 viewBox="0 0 49 49" style="enable-background:new 0 0 49 49;" xml:space="preserve">
<path d="M24.5,14.9c-5.3,0-9.6,4.3-9.6,9.6s4.3,9.6,9.6,9.6s9.6-4.3,9.6-9.6S29.8,14.9,24.5,14.9z M24.5,31.1c-3.6,0-6.6-3-6.6-6.6
	c0-3.6,3-6.6,6.6-6.6c3.6,0,6.6,3,6.6,6.6C31.1,28.1,28.1,31.1,24.5,31.1z M47.5,18.9H44c-0.4-1.5-1-2.9-1.8-4.2l2.4-2.4
	c0.6-0.6,0.6-1.5,0-2.1l-5.8-5.8c-0.3-0.3-0.7-0.4-1.1-0.4S37.1,4,36.8,4.3l-2.4,2.4c-1.3-0.8-2.8-1.3-4.2-1.8V1.5
	c0-0.8-0.7-1.5-1.5-1.5h-8.2c-0.8,0-1.5,0.7-1.5,1.5v3.4c-1.5,0.4-2.9,1-4.2,1.8l-2.4-2.4c-0.6-0.6-1.6-0.6-2.1,0l-5.8,5.8
	c-0.6,0.6-0.6,1.5,0,2.1l2.4,2.4c-0.8,1.3-1.3,2.8-1.8,4.2H1.5c-0.8,0-1.5,0.7-1.5,1.5v8.2c0,0.8,0.7,1.5,1.5,1.5h3.4
	c0.4,1.5,1,2.9,1.8,4.2l-2.4,2.4c-0.6,0.6-0.6,1.5,0,2.1l5.8,5.8c0.6,0.6,1.5,0.6,2.1,0l2.4-2.4c1.3,0.8,2.8,1.3,4.2,1.8v3.4
	c0,0.8,0.7,1.5,1.5,1.5h8.2c0.8,0,1.5-0.7,1.5-1.5V44c1.5-0.4,2.9-1,4.2-1.8l2.4,2.4c0.6,0.6,1.6,0.6,2.1,0l5.8-5.8
	c0.6-0.6,0.6-1.5,0-2.1l-2.4-2.4c0.8-1.3,1.3-2.8,1.8-4.2h3.4c0.8,0,1.5-0.7,1.5-1.5v-8.2C49,19.5,48.3,18.9,47.5,18.9z M46,27.1
	h-3.1c-0.7,0-1.3,0.5-1.5,1.2c-0.4,1.9-1.2,3.8-2.3,5.5c-0.4,0.6-0.3,1.4,0.2,1.9l2.2,2.2l-3.7,3.7l-2.2-2.2
	c-0.5-0.5-1.3-0.6-1.9-0.2c-1.7,1.1-3.6,1.9-5.5,2.3c-0.7,0.2-1.2,0.8-1.2,1.5V46h-5.2v-3.1c0-0.7-0.5-1.3-1.2-1.5
	c-1.9-0.4-3.8-1.2-5.5-2.3c-0.6-0.4-1.4-0.3-1.9,0.2l-2.2,2.2l-3.7-3.7l2.2-2.2c0.5-0.5,0.6-1.3,0.2-1.9c-1.1-1.7-1.9-3.6-2.3-5.5
	c-0.2-0.7-0.8-1.2-1.5-1.2H3v-5.2h3.1c0.7,0,1.3-0.5,1.5-1.2c0.4-1.9,1.2-3.8,2.3-5.5c0.4-0.6,0.3-1.4-0.2-1.9l-2.2-2.2l3.7-3.7
	l2.2,2.2c0.5,0.5,1.3,0.6,1.9,0.2c1.7-1.1,3.6-1.9,5.5-2.3c0.7-0.2,1.2-0.8,1.2-1.5V3h5.2v3.1c0,0.7,0.5,1.3,1.2,1.5
	c1.9,0.4,3.8,1.2,5.5,2.3c0.6,0.4,1.4,0.3,1.9-0.2l2.2-2.2l3.7,3.7l-2.2,2.2c-0.5,0.5-0.6,1.3-0.2,1.9c1.1,1.7,1.9,3.6,2.3,5.5
	c0.2,0.7,0.8,1.2,1.5,1.2H46C46,21.9,46,27.1,46,27.1z"/>
</svg>
