<svg viewBox="0 0 170.9 62" id="swot-logo" width="100%" height="100%"><g clip-path="url(#swot-logo_b)"><g clip-path="url(#swot-logo_d)"><path fill="#fff" d="M22.6 44c0-1.1-.5-2.1-1.5-2.7-1-.7-2.2-1.3-3.6-1.9-1.4-.6-3-1.2-4.7-1.8s-3.3-1.4-4.7-2.5c-1.4-1.1-2.6-2.4-3.6-4S3 27.4 3 24.8c0-4.2 1.3-7.5 3.8-9.7 2.5-2.2 6.1-3.3 10.9-3.3 3.3 0 6.2.3 8.8 1 2.6.7 4.7 1.5 6.2 2.3l-2.5 8.1c-1.3-.5-3-1.1-5-1.6-2-.6-4-.9-6.1-.9-3.3 0-5 1.3-5 3.9 0 1 .5 1.9 1.5 2.5 1 .6 2.2 1.2 3.6 1.8 1.4.5 3 1.1 4.7 1.8 1.7.6 3.3 1.4 4.7 2.4 1.4 1 2.6 2.3 3.6 3.9s1.5 3.7 1.5 6.2c0 4.3-1.4 7.8-4.2 10.2-2.8 2.5-6.9 3.7-12.5 3.7-3 0-5.9-.4-8.5-1.2-2.7-.8-4.8-1.7-6.5-2.7l3.1-8.3c1.3.7 3.1 1.5 5.2 2.2 2.2.7 4.4 1.1 6.7 1.1 1.7 0 3-.3 4-.9 1.1-.7 1.6-1.8 1.6-3.3z"></path></g><g clip-path="url(#swot-logo_d)"><path fill="#fff" d="M141.4 13h5.9V5l11.1-3.2V13h10.5v9.4h-10.5v16.4c0 3 .3 5.1.9 6.4s1.7 1.9 3.4 1.9c1.1 0 2.1-.1 3-.3.8-.2 1.8-.6 2.8-1l2 8.6c-1.5.7-3.3 1.4-5.4 1.9-2.1.5-4.1.8-6.3.8-3.9 0-6.8-1-8.7-3-1.9-2-2.8-5.4-2.8-10V22.5h-5.9V13z"></path></g><g clip-path="url(#swot-logo_d)"><path fill="#fff" d="M99.9 34.4c0-7.3 1.8-12.8 5.3-16.7 3.5-3.9 8.5-5.9 14.9-5.9 3.4 0 6.4.5 8.9 1.6s4.6 2.6 6.3 4.6c1.7 2 2.9 4.4 3.7 7.2.8 2.8 1.2 5.9 1.2 9.3 0 7.3-1.8 12.8-5.3 16.7-3.5 3.9-8.5 5.9-14.9 5.9-3.4 0-6.4-.5-8.9-1.6s-4.6-2.6-6.3-4.6c-1.7-2-2.9-4.4-3.8-7.2-.7-2.8-1.1-5.9-1.1-9.3zm11.5 0c0 1.9.2 3.6.5 5.2s.9 3 1.5 4.2 1.6 2.1 2.7 2.8c1.1.7 2.4 1 4 1 2.9 0 5.1-1.1 6.5-3.2 1.4-2.1 2.1-5.5 2.1-10 0-3.9-.7-7.1-2-9.6-1.3-2.4-3.5-3.6-6.7-3.6-2.7 0-4.9 1-6.4 3.1s-2.2 5.5-2.2 10.1z"></path></g><g clip-path="url(#swot-logo_d)"><g clip-path="url(#swot-logo_f)"><path fill="#2F91CF" d="M55.8 60.5c-3.2.9-6.5-1-7.4-4.2L36.2 12.1c-.9-3.2 1-6.5 4.2-7.4 3.2-.9 6.5 1 7.4 4.2L60 53.1c.9 3.2-1 6.5-4.2 7.4"></path></g></g><g clip-path="url(#swot-logo_d)"><g clip-path="url(#swot-logo_h)"><path fill="#2F91CF" d="M52.5 60.5c3.2.9 6.5-1 7.4-4.2l12.3-44.2c.9-3.2-1-6.5-4.2-7.4-3.2-.9-6.5 1-7.4 4.2L48.3 53.1c-.9 3.2 1 6.5 4.2 7.4"></path></g></g><g clip-path="url(#swot-logo_d)"><g clip-path="url(#swot-logo_j)"><path fill="#2F91CF" d="M80.1 60.5c-3.2.9-6.5-1-7.4-4.2L60.4 12.1c-.9-3.2 1-6.5 4.2-7.4 3.2-.9 6.5 1 7.4 4.2l12.3 44.2c.8 3.2-1.1 6.5-4.2 7.4"></path></g></g><g clip-path="url(#swot-logo_d)"><g clip-path="url(#swot-logo_l)"><path fill="#2F91CF" d="M76.7 60.5c3.2.9 6.5-1 7.4-4.2l12.3-44.2c.9-3.2-1-6.5-4.2-7.4-3.2-.9-6.5 1-7.4 4.2L72.5 53.1c-.8 3.2 1 6.5 4.2 7.4"></path></g></g></g></svg>