<?xml version="1.0" encoding="utf-8"?>
<!-- Generator: Adobe Illustrator 22.1.0, SVG Export Plug-In . SVG Version: 6.00 Build 0)  -->
<svg version="1.1" id="Слой_1" xmlns="http://www.w3.org/2000/svg" xmlns:xlink="http://www.w3.org/1999/xlink" x="0px" y="0px"
	 viewBox="0 0 39.5 37.8" style="enable-background:new 0 0 39.5 37.8;" xml:space="preserve">
<path d="M19.9,2C10,2,2,10,2,19.9c0,9.9,8,17.9,17.9,17.9s17.9-8,17.9-17.9C37.8,10,29.7,2,19.9,2z M19.9,34.8
	C11.7,34.8,5,28.1,5,19.9C5,11.7,11.7,5,19.9,5s14.9,6.7,14.9,14.9C34.8,28.1,28.1,34.8,19.9,34.8z M19.9,7.4
	c-0.8,0-1.5,0.7-1.5,1.5v10.4l-4.6,4.6c-0.6,0.6-0.6,1.5,0,2.1c0.3,0.3,0.7,0.4,1.1,0.4s0.8-0.1,1.1-0.4l5.1-5.1c0,0,0,0,0,0
	c0.1-0.1,0.2-0.3,0.3-0.5c0,0,0,0,0,0c0.1-0.2,0.1-0.3,0.1-0.5c0,0,0,0,0,0v-11C21.4,8,20.7,7.4,19.9,7.4z M7.6,2.6
	C8.2,2,8.2,1,7.6,0.4s-1.5-0.6-2.1,0L0.4,5.5c-0.6,0.6-0.6,1.5,0,2.1c0.3,0.3,0.7,0.4,1.1,0.4s0.8-0.1,1.1-0.4L7.6,2.6z M39.1,5.8
	L34,0.7c-0.6-0.6-1.5-0.6-2.1,0s-0.6,1.5,0,2.1L37,7.9c0.3,0.3,0.7,0.4,1.1,0.4s0.8-0.1,1.1-0.4C39.7,7.3,39.7,6.3,39.1,5.8z"/>
</svg>
