<?xml version="1.0" encoding="utf-8"?>
<!-- Generator: Adobe Illustrator 22.1.0, SVG Export Plug-In . SVG Version: 6.00 Build 0)  -->
<svg version="1.1" id="Слой_1" xmlns="http://www.w3.org/2000/svg" xmlns:xlink="http://www.w3.org/1999/xlink" x="0px" y="0px"
	 viewBox="0 0 44 40" style="enable-background:new 0 0 44 40;" xml:space="preserve">
<g>
	<path d="M20.9,22.9h2.1c4.9,0,8.9-4,8.9-8.9V8.9C32,4,28,0,23.1,0h-2.1C16,0,12,4,12,8.9V14C12,18.9,16,22.9,20.9,22.9z M16,8.9
		C16,6.2,18.2,4,20.9,4h2.1C25.8,4,28,6.2,28,8.9V14c0,2.7-2.2,4.9-4.9,4.9h-2.1c-2.7,0-4.9-2.2-4.9-4.9V8.9z"/>
	<path d="M43.8,30.9C43.8,30.9,43.8,30.9,43.8,30.9c0-0.9-0.4-1.7-1.2-2c-4.7-2-12.4-3.2-20.6-3.2c-8.5,0-16.1,1.2-20.8,3.2
		C0.4,29.3,0,30.1,0,31c0,0,0,0.1,0,0.1V35c0,2.8,2.2,5,5,5h34c2.8,0,5-2.2,5-5.1L43.8,30.9z M39,36H5c-0.5,0-1-0.5-1-1v-2.8
		c4.2-1.5,10.8-2.4,18-2.4c6.9,0,13.6,0.9,17.9,2.4L40,35C40,35.5,39.5,36,39,36z"/>
</g>
</svg>
